<svg width="37" height="36" viewBox="0 0 37 36" fill="none" xmlns="http://www.w3.org/2000/svg">
<path d="M34.0383 28.23L32.5383 22.44L27.8133 5.055C27.7112 4.67151 27.4613 4.34411 27.1183 4.1445C26.7753 3.94489 26.3672 3.88933 25.9833 3.99L20.1783 5.49C20.0398 5.33647 19.871 5.21324 19.6825 5.12805C19.4941 5.04287 19.2901 4.99757 19.0833 4.995H4.08331C3.68549 4.995 3.30396 5.15303 3.02265 5.43434C2.74135 5.71564 2.58331 6.09717 2.58331 6.495V30.495C2.58331 30.8928 2.74135 31.2744 3.02265 31.5557C3.30396 31.837 3.68549 31.995 4.08331 31.995H19.0833C19.4811 31.995 19.8627 31.837 20.144 31.5557C20.4253 31.2744 20.5833 30.8928 20.5833 30.495V18.495L23.8833 30.825C23.9712 31.1522 24.1673 31.4401 24.4397 31.6416C24.7121 31.8432 25.0447 31.9466 25.3833 31.935C25.5129 31.9497 25.6437 31.9497 25.7733 31.935L33.0183 30C33.2099 29.9488 33.3893 29.8601 33.5464 29.7391C33.7035 29.6181 33.835 29.4672 33.9333 29.295C34.0915 28.9631 34.1287 28.5864 34.0383 28.23ZM10.0383 29.055H5.53831V26.055H10.0383V29.055ZM10.0383 23.055H5.53831V14.055H10.0383V23.055ZM10.0383 11.055H5.53831V8.055H10.0383V11.055ZM17.5383 29.055H13.0383V26.055H17.5383V29.055ZM17.5383 23.055H13.0383V14.055H17.5383V23.055ZM17.5383 11.055H13.0383V8.055H17.5383V11.055ZM20.9133 8.445L25.2633 7.275L26.0433 10.17L21.6933 11.34L20.9133 8.445ZM24.7983 22.935L22.4733 14.235L26.8233 13.065L29.1483 21.765L24.7983 22.935ZM26.2983 28.725L25.5183 25.83L29.8683 24.66L30.6483 27.555L26.2983 28.725Z" fill="#F3F2F7"/>
<path d="M34.0383 28.23L32.5383 22.44L27.8133 5.055C27.7112 4.67151 27.4613 4.34411 27.1183 4.1445C26.7753 3.94489 26.3672 3.88933 25.9833 3.99L20.1783 5.49C20.0398 5.33647 19.871 5.21324 19.6825 5.12805C19.4941 5.04287 19.2901 4.99757 19.0833 4.995H4.08331C3.68549 4.995 3.30396 5.15303 3.02265 5.43434C2.74135 5.71564 2.58331 6.09717 2.58331 6.495V30.495C2.58331 30.8928 2.74135 31.2744 3.02265 31.5557C3.30396 31.837 3.68549 31.995 4.08331 31.995H19.0833C19.4811 31.995 19.8627 31.837 20.144 31.5557C20.4253 31.2744 20.5833 30.8928 20.5833 30.495V18.495L23.8833 30.825C23.9712 31.1522 24.1673 31.4401 24.4397 31.6416C24.7121 31.8432 25.0447 31.9466 25.3833 31.935C25.5129 31.9497 25.6437 31.9497 25.7733 31.935L33.0183 30C33.2099 29.9488 33.3893 29.8601 33.5464 29.7391C33.7035 29.6181 33.835 29.4672 33.9333 29.295C34.0915 28.9631 34.1287 28.5864 34.0383 28.23ZM10.0383 29.055H5.53831V26.055H10.0383V29.055ZM10.0383 23.055H5.53831V14.055H10.0383V23.055ZM10.0383 11.055H5.53831V8.055H10.0383V11.055ZM17.5383 29.055H13.0383V26.055H17.5383V29.055ZM17.5383 23.055H13.0383V14.055H17.5383V23.055ZM17.5383 11.055H13.0383V8.055H17.5383V11.055ZM20.9133 8.445L25.2633 7.275L26.0433 10.17L21.6933 11.34L20.9133 8.445ZM24.7983 22.935L22.4733 14.235L26.8233 13.065L29.1483 21.765L24.7983 22.935ZM26.2983 28.725L25.5183 25.83L29.8683 24.66L30.6483 27.555L26.2983 28.725Z" fill="#6181A2"/>
</svg>
