<svg width="37" height="36" viewBox="0 0 37 36" fill="none" xmlns="http://www.w3.org/2000/svg">
<path d="M11.1667 15H14.1667C14.5645 15 14.946 14.842 15.2273 14.5607C15.5086 14.2794 15.6667 13.8978 15.6667 13.5C15.6667 13.1022 15.5086 12.7206 15.2273 12.4393C14.946 12.158 14.5645 12 14.1667 12H11.1667C10.7688 12 10.3873 12.158 10.106 12.4393C9.82469 12.7206 9.66666 13.1022 9.66666 13.5C9.66666 13.8978 9.82469 14.2794 10.106 14.5607C10.3873 14.842 10.7688 15 11.1667 15ZM32.1667 6H20.1667V4.5C20.1667 4.10218 20.0086 3.72064 19.7273 3.43934C19.446 3.15804 19.0645 3 18.6667 3C18.2688 3 17.8873 3.15804 17.606 3.43934C17.3247 3.72064 17.1667 4.10218 17.1667 4.5V6H5.16666C4.76883 6 4.3873 6.15804 4.106 6.43934C3.82469 6.72064 3.66666 7.10218 3.66666 7.5V22.5C3.66666 23.6935 4.14076 24.8381 4.98468 25.682C5.82859 26.5259 6.97318 27 8.16666 27H15.0517L11.6017 30.435C11.4611 30.5744 11.3495 30.7403 11.2733 30.9231C11.1972 31.1059 11.158 31.302 11.158 31.5C11.158 31.698 11.1972 31.8941 11.2733 32.0769C11.3495 32.2597 11.4611 32.4256 11.6017 32.565C11.7411 32.7056 11.907 32.8172 12.0898 32.8933C12.2726 32.9695 12.4686 33.0087 12.6667 33.0087C12.8647 33.0087 13.0607 32.9695 13.2435 32.8933C13.4263 32.8172 13.5922 32.7056 13.7317 32.565L17.1667 29.115V31.5C17.1667 31.8978 17.3247 32.2794 17.606 32.5607C17.8873 32.842 18.2688 33 18.6667 33C19.0645 33 19.446 32.842 19.7273 32.5607C20.0086 32.2794 20.1667 31.8978 20.1667 31.5V29.115L23.6017 32.565C23.7411 32.7056 23.907 32.8172 24.0898 32.8933C24.2726 32.9695 24.4686 33.0087 24.6667 33.0087C24.8647 33.0087 25.0607 32.9695 25.2435 32.8933C25.4263 32.8172 25.5922 32.7056 25.7317 32.565C25.8722 32.4256 25.9838 32.2597 26.06 32.0769C26.1361 31.8941 26.1754 31.698 26.1754 31.5C26.1754 31.302 26.1361 31.1059 26.06 30.9231C25.9838 30.7403 25.8722 30.5744 25.7317 30.435L22.2817 27H29.1667C30.3601 27 31.5047 26.5259 32.3486 25.682C33.1926 24.8381 33.6667 23.6935 33.6667 22.5V7.5C33.6667 7.10218 33.5086 6.72064 33.2273 6.43934C32.946 6.15804 32.5645 6 32.1667 6ZM30.6667 22.5C30.6667 22.8978 30.5086 23.2794 30.2273 23.5607C29.946 23.842 29.5645 24 29.1667 24H8.16666C7.76883 24 7.3873 23.842 7.106 23.5607C6.82469 23.2794 6.66666 22.8978 6.66666 22.5V9H30.6667V22.5ZM11.1667 21H20.1667C20.5645 21 20.946 20.842 21.2273 20.5607C21.5086 20.2794 21.6667 19.8978 21.6667 19.5C21.6667 19.1022 21.5086 18.7206 21.2273 18.4393C20.946 18.158 20.5645 18 20.1667 18H11.1667C10.7688 18 10.3873 18.158 10.106 18.4393C9.82469 18.7206 9.66666 19.1022 9.66666 19.5C9.66666 19.8978 9.82469 20.2794 10.106 20.5607C10.3873 20.842 10.7688 21 11.1667 21Z" fill="#F3F2F7"/>
<path d="M11.1667 15H14.1667C14.5645 15 14.946 14.842 15.2273 14.5607C15.5086 14.2794 15.6667 13.8978 15.6667 13.5C15.6667 13.1022 15.5086 12.7206 15.2273 12.4393C14.946 12.158 14.5645 12 14.1667 12H11.1667C10.7688 12 10.3873 12.158 10.106 12.4393C9.82469 12.7206 9.66666 13.1022 9.66666 13.5C9.66666 13.8978 9.82469 14.2794 10.106 14.5607C10.3873 14.842 10.7688 15 11.1667 15ZM32.1667 6H20.1667V4.5C20.1667 4.10218 20.0086 3.72064 19.7273 3.43934C19.446 3.15804 19.0645 3 18.6667 3C18.2688 3 17.8873 3.15804 17.606 3.43934C17.3247 3.72064 17.1667 4.10218 17.1667 4.5V6H5.16666C4.76883 6 4.3873 6.15804 4.106 6.43934C3.82469 6.72064 3.66666 7.10218 3.66666 7.5V22.5C3.66666 23.6935 4.14076 24.8381 4.98468 25.682C5.82859 26.5259 6.97318 27 8.16666 27H15.0517L11.6017 30.435C11.4611 30.5744 11.3495 30.7403 11.2733 30.9231C11.1972 31.1059 11.158 31.302 11.158 31.5C11.158 31.698 11.1972 31.8941 11.2733 32.0769C11.3495 32.2597 11.4611 32.4256 11.6017 32.565C11.7411 32.7056 11.907 32.8172 12.0898 32.8933C12.2726 32.9695 12.4686 33.0087 12.6667 33.0087C12.8647 33.0087 13.0607 32.9695 13.2435 32.8933C13.4263 32.8172 13.5922 32.7056 13.7317 32.565L17.1667 29.115V31.5C17.1667 31.8978 17.3247 32.2794 17.606 32.5607C17.8873 32.842 18.2688 33 18.6667 33C19.0645 33 19.446 32.842 19.7273 32.5607C20.0086 32.2794 20.1667 31.8978 20.1667 31.5V29.115L23.6017 32.565C23.7411 32.7056 23.907 32.8172 24.0898 32.8933C24.2726 32.9695 24.4686 33.0087 24.6667 33.0087C24.8647 33.0087 25.0607 32.9695 25.2435 32.8933C25.4263 32.8172 25.5922 32.7056 25.7317 32.565C25.8722 32.4256 25.9838 32.2597 26.06 32.0769C26.1361 31.8941 26.1754 31.698 26.1754 31.5C26.1754 31.302 26.1361 31.1059 26.06 30.9231C25.9838 30.7403 25.8722 30.5744 25.7317 30.435L22.2817 27H29.1667C30.3601 27 31.5047 26.5259 32.3486 25.682C33.1926 24.8381 33.6667 23.6935 33.6667 22.5V7.5C33.6667 7.10218 33.5086 6.72064 33.2273 6.43934C32.946 6.15804 32.5645 6 32.1667 6ZM30.6667 22.5C30.6667 22.8978 30.5086 23.2794 30.2273 23.5607C29.946 23.842 29.5645 24 29.1667 24H8.16666C7.76883 24 7.3873 23.842 7.106 23.5607C6.82469 23.2794 6.66666 22.8978 6.66666 22.5V9H30.6667V22.5ZM11.1667 21H20.1667C20.5645 21 20.946 20.842 21.2273 20.5607C21.5086 20.2794 21.6667 19.8978 21.6667 19.5C21.6667 19.1022 21.5086 18.7206 21.2273 18.4393C20.946 18.158 20.5645 18 20.1667 18H11.1667C10.7688 18 10.3873 18.158 10.106 18.4393C9.82469 18.7206 9.66666 19.1022 9.66666 19.5C9.66666 19.8978 9.82469 20.2794 10.106 20.5607C10.3873 20.842 10.7688 21 11.1667 21Z" fill="#6181A2"/>
</svg>
